<svg width="27" height="27" viewBox="0 0 27 27" fill="none" xmlns="http://www.w3.org/2000/svg">
<path fill-rule="evenodd" clip-rule="evenodd" d="M6.90005 0.299988C5.98878 0.299988 5.25005 1.03872 5.25005 1.94999V3.59999H3.60005C1.77751 3.59999 0.300049 5.07745 0.300049 6.89999V23.4C0.300049 25.2225 1.77751 26.7 3.60005 26.7H23.4C25.2226 26.7 26.7 25.2225 26.7 23.4V6.89999C26.7 5.07745 25.2226 3.59999 23.4 3.59999H21.75V1.94999C21.75 1.03872 21.0113 0.299988 20.1 0.299988C19.1888 0.299988 18.45 1.03872 18.45 1.94999V3.59999H8.55005V1.94999C8.55005 1.03872 7.81132 0.299988 6.90005 0.299988ZM6.90005 8.54999C5.98878 8.54999 5.25005 9.28872 5.25005 10.2C5.25005 11.1113 5.98878 11.85 6.90005 11.85H20.1C21.0113 11.85 21.75 11.1113 21.75 10.2C21.75 9.28872 21.0113 8.54999 20.1 8.54999H6.90005Z" fill="black" fill-opacity="0.54"/>
</svg>
