<svg width="14" height="14" viewBox="0 0 14 14" fill="none" xmlns="http://www.w3.org/2000/svg">
<path fill-rule="evenodd" clip-rule="evenodd" d="M7.00001 13.4C10.5346 13.4 13.4 10.5346 13.4 6.99998C13.4 3.46535 10.5346 0.599976 7.00001 0.599976C3.46538 0.599976 0.600006 3.46535 0.600006 6.99998C0.600006 10.5346 3.46538 13.4 7.00001 13.4ZM7.50001 3.79998C7.50001 3.52383 7.27615 3.29998 7.00001 3.29998C6.72386 3.29998 6.50001 3.52383 6.50001 3.79998V6.99998C6.50001 7.13258 6.55268 7.25976 6.64645 7.35353L8.90919 9.61627C9.10446 9.81153 9.42104 9.81153 9.6163 9.61627C9.81156 9.42101 9.81156 9.10443 9.6163 8.90916L7.50001 6.79287V3.79998Z" fill="black" fill-opacity="0.54"/>
</svg>
