<svg width="49" height="49" viewBox="0 0 49 49" fill="none" xmlns="http://www.w3.org/2000/svg">
<g clip-path="url(#clip0_70_2786)">
<path d="M40.3867 0.936523V8.70886H48.1591L40.3867 0.936523Z" fill="#0072FF"/>
<path d="M30.4984 35.6393C32.5065 33.4636 33.7354 30.5583 33.7354 27.3711C33.7354 20.6428 28.2615 15.1689 21.5332 15.1689C14.8049 15.1689 9.33105 20.6428 9.33105 27.3711C9.33105 30.5583 10.5599 33.4636 12.568 35.6393C13.0097 33.2315 14.6071 31.2965 16.7326 30.366C15.8459 29.2906 15.3125 27.9135 15.3125 26.4141C15.3125 22.984 18.1031 20.1934 21.5332 20.1934C24.9633 20.1934 27.7539 22.984 27.7539 26.4141C27.7539 27.9134 27.2206 29.2906 26.3338 30.366C28.4594 31.2965 30.0567 33.2315 30.4984 35.6393Z" fill="#0072FF"/>
<path d="M21.5332 29.7637C23.3831 29.7637 24.8828 28.264 24.8828 26.4141C24.8828 24.5641 23.3831 23.0645 21.5332 23.0645C19.6833 23.0645 18.1836 24.5641 18.1836 26.4141C18.1836 28.264 19.6833 29.7637 21.5332 29.7637Z" fill="#0072FF"/>
<path d="M15.378 36.2276L15.1239 37.7499C16.9877 38.9051 19.1838 39.5732 21.5332 39.5732C23.8826 39.5732 26.0786 38.9051 27.9425 37.7499L27.6885 36.2275C27.341 34.1457 25.5573 32.6348 23.4473 32.6348H19.6191C17.5092 32.6348 15.7255 34.1457 15.378 36.2276Z" fill="#0072FF"/>
<path d="M38.9512 11.5801C38.1584 11.5801 37.5156 10.9373 37.5156 10.1445V0.0957031H15.0254C13.1784 0.0957031 11.6758 1.59834 11.6758 3.44531V15.9768C14.3204 13.6857 17.7678 12.2979 21.5332 12.2979C24.3678 12.2979 27.0219 13.0849 29.2893 14.4512H41.8223C42.6151 14.4512 43.2578 15.0939 43.2578 15.8867C43.2578 16.6795 42.6151 17.3223 41.8223 17.3223H32.7577C33.5393 18.1943 34.2215 19.157 34.7851 20.1934H41.8223C42.6151 20.1934 43.2578 20.8361 43.2578 21.6289C43.2578 22.4217 42.6151 23.0645 41.8223 23.0645H35.9785C36.2544 23.9878 36.4439 24.9479 36.5377 25.9355H41.8223C42.6151 25.9355 43.2578 26.5783 43.2578 27.3711C43.2578 28.1639 42.6151 28.8066 41.8223 28.8066H36.5377C36.4439 29.7943 36.2544 30.7544 35.9785 31.6777H41.8223C42.6151 31.6777 43.2578 32.3205 43.2578 33.1133C43.2578 33.9061 42.6151 34.5488 41.8223 34.5488H34.7851C32.2297 39.2478 27.2477 42.4443 21.5332 42.4443C19.4812 42.4443 17.524 42.0316 15.7393 41.2857L11.6758 45.3492V45.5547C11.6758 47.4017 13.1784 48.9043 15.0254 48.9043H45.6504C47.4974 48.9043 49 47.4017 49 45.5547V11.5801H38.9512ZM33.209 11.5801H18.8535C18.0607 11.5801 17.418 10.9373 17.418 10.1445C17.418 9.35173 18.0607 8.70898 18.8535 8.70898H33.209C34.0018 8.70898 34.6445 9.35173 34.6445 10.1445C34.6445 10.9373 34.0018 11.5801 33.209 11.5801ZM41.8223 40.291H34.166C33.3732 40.291 32.7305 39.6483 32.7305 38.8555C32.7305 38.0627 33.3732 37.4199 34.166 37.4199H41.8223C42.6151 37.4199 43.2578 38.0627 43.2578 38.8555C43.2578 39.6483 42.6151 40.291 41.8223 40.291Z" fill="#0072FF"/>
<path d="M9.04327 35.8008L0.840943 44.0031C-0.280314 45.1244 -0.280314 46.9423 0.840943 48.0634C1.9622 49.1846 3.78008 49.1847 4.90124 48.0634L13.1036 39.8611C11.5055 38.7792 10.1252 37.3988 9.04327 35.8008Z" fill="#0072FF"/>
</g>
<defs>
<clipPath id="clip0_70_2786">
<rect width="49" height="49" fill="white"/>
</clipPath>
</defs>
</svg>
