<svg width="61" height="37" viewBox="0 0 61 37" fill="none" xmlns="http://www.w3.org/2000/svg">
<path d="M14.7416 3.50437C12.7083 1.471 4.06663 0.962742 1.27075 0.708496C1.01663 0.708496 0.762381 0.708496 0.508254 0.962623C0.254127 1.21687 0 1.72524 0 1.97937V24.8544C0 25.6169 0.508373 26.1252 1.27087 26.1252H8.89587C9.40425 26.1252 9.9125 25.8711 10.1667 25.3627C10.1667 24.6002 14.7417 11.1294 15.2501 4.52112C15.25 4.26687 15.25 3.75861 14.7416 3.50437Z" fill="#0072FF"/>
<path d="M41.9375 9.6042C39.3959 8.8417 37.1084 7.82507 35.075 7.06257C30.5 5.0292 28.4666 6.04595 24.4 10.1126C22.6209 11.8917 21.35 14.4334 21.6041 15.4501C21.6041 15.7042 21.6041 15.7042 22.1125 15.9584C23.3834 16.4668 25.1625 16.7209 26.9416 13.9251C27.1957 13.6709 27.45 13.4167 27.9582 13.4167C28.7207 13.4167 28.9749 13.1626 29.7374 12.9083C30.2457 12.6542 30.754 12.4 31.5165 12.1458C31.7706 12.1458 31.7706 12.1458 32.0249 12.1458C32.279 12.1458 32.7874 12.4 33.0415 12.4C34.3125 13.6709 36.6 15.4501 38.8875 17.4834C42.4459 20.2793 46.0041 23.3293 47.7834 25.6168H48.0375C46.2584 20.5334 43.2084 11.8917 41.9375 9.6042Z" fill="#0072FF"/>
<path d="M59.7291 3.25C49.8166 3.25 44.225 5.79163 43.9708 5.79163C43.7166 6.04575 43.4624 6.3 43.2083 6.55413C43.2083 6.80825 43.2083 7.31663 43.4624 7.57076C44.9874 10.1124 50.0708 24.0916 50.8333 27.6499C51.0874 28.1583 51.5958 28.6665 52.1041 28.6665H59.7291C60.4916 28.6665 61 28.1581 61 27.3956V4.52063C61 3.75837 60.4916 3.25 59.7291 3.25Z" fill="#0072FF"/>
<path d="M46.0041 28.1585C44.9875 25.871 40.6666 22.5669 36.8541 19.5169C34.8209 17.7376 32.7875 16.2126 31.2625 14.9417C31.0084 15.1959 30.5 15.1959 30.5 15.4501C29.7375 15.7042 29.4834 15.9585 28.4666 15.9585C26.4334 18.5001 23.8916 19.5167 21.0959 18.5001C19.825 18.246 19.0625 17.2292 18.8084 16.2126C18.3 13.671 20.5875 10.1126 22.3667 8.3335H17.2834C16.2667 13.4169 14.4875 20.0251 13.2167 23.5835C14.2334 24.6001 15.2501 25.871 16.0126 26.3794C20.8417 30.446 26.4335 34.5127 27.4501 35.2752C28.2126 35.7836 29.7376 36.2919 30.5001 36.2919C30.7542 36.2919 31.0085 36.2919 31.2626 36.2919L27.1959 32.2251C26.6875 31.7168 26.6875 30.9542 27.1959 30.446C27.7042 29.9377 28.4667 29.9376 28.975 30.446L34.0584 35.5294C34.5667 36.0377 35.075 35.7835 35.5834 35.7835C36.3459 35.5294 36.6 35.021 36.8542 34.2585L31.0084 28.4126C30.5 27.9043 30.5 27.1417 31.0084 26.6335C31.5167 26.1252 32.2792 26.1251 32.7875 26.6335L39.1416 32.9876C39.3957 33.2418 40.4125 33.2418 41.175 32.9876C41.4291 32.7335 41.9375 32.4792 42.1916 31.971L35.075 24.8542C34.5666 24.3459 34.5666 23.5834 35.075 23.0751C35.5834 22.5669 36.3459 22.5667 36.8541 23.0751L44.225 30.446C44.7334 30.7001 45.2416 30.446 45.75 30.1919C46.0041 29.9376 46.5125 29.1751 46.0041 28.1585Z" fill="#0072FF"/>
</svg>
