<svg width="137" height="58" viewBox="0 0 137 58" fill="none" xmlns="http://www.w3.org/2000/svg">
<path d="M43.9212 1.29403C38.2253 5.40127 38.0704 5.51892 37.9261 5.73374C37.6429 6.15316 37.6215 6.72091 37.878 7.13522C37.9689 7.28355 38.4177 7.8871 41.5167 11.9944C42.174 12.8639 43.2373 14.2807 43.8838 15.14C44.5303 15.9993 45.1448 16.8075 45.2463 16.9456C45.5883 17.3803 46.0104 17.5696 46.5554 17.5338C46.7371 17.5235 46.9615 17.4775 47.0577 17.4315C47.1485 17.3854 48.7247 16.296 50.5575 15.007C52.3902 13.7232 54.1214 12.5058 54.4046 12.3064C54.9068 11.9585 55.019 11.8102 54.8107 11.7744C54.7626 11.7642 53.742 12.025 52.5451 12.3473C51.1826 12.7207 50.2743 12.9406 50.1193 12.9406C49.7186 12.9406 49.3552 12.8076 49.0774 12.5672C48.9438 12.4496 48.527 11.9637 48.1477 11.4829C47.7736 11.0072 47.4317 10.6082 47.3889 10.598C47.3462 10.5929 47.1806 10.6798 47.0203 10.7924C46.8653 10.9049 46.7157 10.9969 46.6997 10.9969C46.6676 10.9969 44.2738 8.00986 44.1723 7.84107C44.151 7.80527 44.2685 7.68762 44.4822 7.53929C44.6853 7.39608 44.8189 7.26309 44.8082 7.22728C44.7921 7.19148 44.4876 6.79252 44.1296 6.3373C43.7769 5.88207 43.435 5.4115 43.3762 5.28363C43.264 5.04323 43.2266 4.59824 43.296 4.28623C43.3228 4.1737 43.8731 3.2786 44.6158 2.13798C45.3211 1.06386 45.8982 0.143179 45.8982 0.0920296C45.8982 0.0357666 45.8608 -3.8147e-05 45.8073 -3.8147e-05C45.7539 -3.8147e-05 44.9043 0.583059 43.9212 1.29403Z" fill="#2058D4"/>
<path d="M46.8653 0.327331C46.8333 0.363135 46.144 1.33496 45.3372 2.4807C43.9907 4.39366 43.8678 4.58803 43.8678 4.78751C43.8678 4.98187 43.9266 5.07905 44.5784 5.89743C44.9632 6.39358 45.3105 6.80788 45.3479 6.82323C45.3799 6.83857 45.5402 6.75673 45.7005 6.64421C45.8662 6.53679 46.0158 6.44473 46.0425 6.44473C46.0852 6.44984 48.5271 9.51365 48.5591 9.61084C48.5698 9.63641 48.4416 9.75405 48.2813 9.8717C48.1157 9.99445 47.9821 10.1121 47.9821 10.1428C47.9821 10.2042 49.3553 11.9586 49.6011 12.2092C49.8896 12.5059 49.8789 12.511 52.4757 11.6824C55.2221 10.8128 55.2488 10.8026 55.2488 10.7157C55.2488 10.6798 54.9443 10.2604 54.5703 9.78474C54.1962 9.31417 53.694 8.67481 53.4535 8.36792L53.0154 7.8104L53.4856 7.46259C54.0787 7.02271 54.2336 6.76185 54.2336 6.21967C54.2336 5.97416 54.1962 5.79002 54.1321 5.65192C54.0787 5.53939 53.507 4.77728 52.8604 3.96401C51.717 2.5165 51.6796 2.47558 51.343 2.30679C51.0277 2.15334 50.9689 2.138 50.627 2.15846C50.2048 2.18403 50.0018 2.27099 49.4835 2.64949L49.1415 2.90012L48.0996 1.57536C47.5279 0.849049 47.031 0.255723 46.9936 0.255723C46.9562 0.255723 46.8974 0.286412 46.8653 0.327331ZM50.8567 3.4116C50.9155 3.46275 51.017 3.66223 51.0758 3.86171C51.1399 4.05608 51.2681 4.36809 51.3643 4.54199C51.5994 4.96653 52.2032 5.59566 52.6734 5.90766C53.0635 6.15829 53.1596 6.31174 53.0581 6.49588C53.0047 6.58794 52.4704 7.00736 52.4063 7.00736C52.3635 7.00736 49.8362 3.78499 49.8575 3.76453C49.9804 3.65712 50.5842 3.32465 50.6537 3.32465C50.7071 3.32465 50.7979 3.36557 50.8567 3.4116Z" fill="#2058D4"/>
<path d="M59.4753 3.49863C59.4005 3.58047 59.0211 4.83361 58.5295 6.59825C57.3861 10.6799 56.3442 15.6311 55.8366 19.3599C55.6923 20.4238 55.6869 20.4545 55.6228 20.9966C55.5908 21.2473 55.5534 21.5388 55.5427 21.636C55.4144 22.5976 55.2595 24.7049 55.19 26.5207C54.9442 32.8171 56.0129 39.3846 58.3479 45.9572C60.5119 52.0388 63.4774 56.9082 65.6039 57.8647C65.8978 57.9977 65.9833 58.013 66.3306 57.9926C67.0733 57.9568 67.4206 57.5731 67.3619 56.8417C67.3245 56.3711 66.9077 55.1998 66.181 53.5017C63.9102 48.2334 63.4399 46.7142 63.2583 44.0954C63.1674 42.7911 63.3117 41.0981 63.5682 40.3974C63.659 40.1467 63.7659 40.0803 63.8086 40.2388C63.8727 40.4536 67.8107 42.6326 71.599 44.5507C74.7248 46.1363 79.8543 48.5812 80.4527 48.7755C80.955 48.9392 81.6176 48.9443 82.0397 48.796C82.3763 48.6732 82.7183 48.351 82.8198 48.0543C82.9106 47.7935 82.8572 47.3229 82.7076 47.0211C82.5419 46.6887 82.0183 46.2028 81.5641 45.947C81.3611 45.8294 80.8054 45.5225 80.3352 45.2667C76.7445 43.2771 72.2776 40.3769 69.435 38.1877C69.1412 37.9576 68.6175 37.5075 68.2649 37.1852C65.978 35.0626 65.1765 33.2007 65.9726 31.8658C66.7901 30.5052 69.5633 28.4899 73.6295 26.3161C75.9538 25.0732 80.3726 23.0119 83.0602 21.9173C83.5839 21.7025 83.7068 21.636 83.7174 21.5439C83.7548 21.2933 83.6854 21.278 82.5847 21.278C79.9024 21.278 77.4125 21.6513 74.5912 22.48C72.1387 23.196 70.2045 23.6666 68.874 23.861C68.0992 23.9786 66.4001 24.0195 65.7536 23.9428C63.1087 23.6206 61.3668 22.1321 60.4103 19.3752C60.1218 18.5415 59.9669 17.8817 59.8867 17.094C59.8386 16.6643 59.8226 14.6644 59.8172 10.0252C59.8172 6.46526 59.7959 3.5242 59.7745 3.4884C59.7157 3.40656 59.5501 3.41168 59.4753 3.49863Z" fill="#2058D4"/>
<path d="M45.4067 7.58535C45.209 7.73368 45.0487 7.88713 45.0433 7.92805C45.0433 8.00989 46.6623 10.0763 46.7799 10.1428C46.8814 10.1939 47.731 9.58015 47.6936 9.47786C47.6775 9.43694 47.2875 8.93568 46.8333 8.3577C46.1868 7.54443 45.9731 7.31426 45.8822 7.31426C45.8181 7.31938 45.6044 7.43702 45.4067 7.58535Z" fill="#2058D4"/>
<path d="M64.8933 15.3959C63.1942 15.8102 61.9652 17.1452 61.7675 18.8024C61.4737 21.2985 63.7125 23.4518 66.3039 23.1705C67.9389 22.9915 69.248 21.9736 69.7877 20.4596C69.9533 20.0044 69.964 19.9277 69.964 19.2576C69.9694 18.5825 69.9587 18.5109 69.793 18.0198C69.3763 16.8025 68.3504 15.846 67.0306 15.447C66.4802 15.2783 65.4757 15.2578 64.8933 15.3959Z" fill="#2058D4"/>
<path d="M129.797 20.9456C127.997 21.319 126.506 21.6361 126.49 21.6515C126.474 21.6668 126.442 22.1016 126.415 22.6182C126.367 23.636 126.271 24.8329 126.228 24.971C126.201 25.058 126.084 25.0631 124.737 25.0631H123.279L123.247 25.5336C123.231 25.7945 123.193 26.6078 123.161 27.3392C123.134 28.0706 123.092 28.9299 123.076 29.2419L123.044 29.8199H124.411H125.779V30.2905C125.779 30.8633 125.71 31.963 125.566 33.6816C125.437 35.1957 125.314 37.2518 125.304 38.0088C125.261 40.8016 126.693 42.3156 129.653 42.6071C130.465 42.689 132.827 42.6429 133.687 42.5304C134.596 42.4127 135.915 42.1621 136.001 42.0956C136.022 42.0752 136.086 41.8092 136.145 41.5023C136.199 41.1954 136.316 40.5663 136.407 40.1008C136.492 39.6354 136.642 38.8323 136.733 38.3106C136.824 37.7889 136.909 37.3132 136.925 37.2518L136.957 37.1393L136.589 37.2416C135.434 37.5587 134.061 37.6661 133.612 37.4769C133.126 37.2723 132.859 36.9705 132.693 36.4386C132.613 36.1879 132.597 35.9322 132.592 34.9348C132.592 33.8811 132.661 31.9989 132.757 30.3416L132.79 29.8199H134.809H136.834L136.861 29.5488C136.904 29.1806 137 26.5208 137 25.7229V25.0631H134.996C133.896 25.0631 132.993 25.0477 132.993 25.0222C132.993 25.0017 133.03 24.0554 133.073 22.9148C133.164 20.5159 133.169 20.2551 133.115 20.2602C133.089 20.2653 131.598 20.5722 129.797 20.9456Z" fill="#2058D4"/>
<path d="M44.2685 24.3827C42.3236 24.4645 39.6039 24.8123 37.2422 25.2829L36.4193 25.4466L36.2964 26.1626C36.227 26.5565 36.0613 27.5181 35.9278 28.3007C35.7942 29.0832 35.6926 29.7379 35.7087 29.7482C35.7247 29.7635 36.0453 29.6714 36.4193 29.5436C38.5085 28.8479 40.1756 28.4388 41.677 28.2597C42.4572 28.1677 43.8464 28.1574 44.2525 28.2393C45.0486 28.403 45.4707 28.8377 45.4707 29.5027C45.4707 30.4029 44.7494 30.7711 41.8908 31.3287C38.5833 31.9783 37.0071 32.4846 35.698 33.3184C35.137 33.6764 34.4049 34.3618 34.0683 34.8477C33.3577 35.886 33.0638 37.088 33.2615 38.2082C33.5767 39.9984 34.608 41.3947 36.0827 42.0136C37.1193 42.4535 38.0009 42.6121 39.6199 42.6428C40.7954 42.6683 42.2434 42.5865 42.719 42.4638C42.89 42.4177 42.8526 42.5098 43.3869 40.8168C43.5685 40.2388 43.8036 39.5074 43.9052 39.1902C44.0067 38.868 44.0761 38.5969 44.0655 38.5816C44.0494 38.5713 43.8838 38.602 43.6968 38.6583C42.8846 38.8987 41.458 38.9396 40.9771 38.735C40.6992 38.6174 40.384 38.336 40.2558 38.0905C40.2023 38.0036 40.1542 37.7734 40.1382 37.5842C40.1168 37.308 40.1329 37.2005 40.2237 37.0215C40.5977 36.2901 41.303 35.9014 43.2266 35.3694C44.0708 35.1392 44.9204 34.8477 45.5188 34.592C45.5776 34.5664 45.5883 34.6584 45.5562 35.1444C45.5402 35.4666 45.4974 36.2083 45.4707 36.8016C45.412 37.9524 45.2517 40.0905 45.1234 41.3794C45.0807 41.8142 45.0433 42.1876 45.0433 42.208C45.0433 42.2336 46.6302 42.2489 48.5698 42.2489H52.0963L52.1177 42.1313C52.1551 41.9727 52.1925 41.2822 52.2566 39.6915C52.4169 35.6354 52.4703 34.6687 52.636 32.7097C52.7001 32.0038 52.7589 30.7763 52.7749 29.9732C52.807 28.3978 52.7642 27.9477 52.5238 27.3493C52.2726 26.715 51.6902 26.0501 50.9742 25.5898C49.6064 24.71 47.1432 24.265 44.2685 24.3827Z" fill="#2058D4"/>
<path d="M87.0409 24.3775C86.373 24.4082 84.7006 24.5514 84.0487 24.6333C82.5686 24.8123 79.3253 25.3749 79.2291 25.4619C79.2131 25.4823 79.0581 26.2803 78.8978 27.2367C78.7322 28.1932 78.5666 29.1548 78.5292 29.3697C78.4864 29.5896 78.4704 29.7686 78.4811 29.7686C78.4971 29.7686 79.0742 29.5845 79.7688 29.3645C81.1687 28.9093 82.777 28.5104 83.9151 28.3262C84.5403 28.229 84.8555 28.2086 85.8387 28.2086C87.1371 28.2086 87.3561 28.2444 87.7889 28.5462C88.334 28.9247 88.4248 29.7482 87.976 30.2238C87.5645 30.6586 86.7737 30.9246 84.7006 31.3235C81.4519 31.9578 79.7581 32.5 78.449 33.3337C77.3483 34.0344 76.5041 35.129 76.1407 36.3157C75.9965 36.7965 75.943 37.6813 76.0285 38.2082C76.1087 38.7043 76.4132 39.5636 76.6537 39.9933C77.4819 41.4459 78.636 42.1722 80.7092 42.5354C81.4519 42.6683 84.0327 42.6683 84.9784 42.5405C85.3311 42.4944 85.6249 42.4433 85.641 42.4331C85.6623 42.4075 85.9295 41.5993 86.186 40.7656C86.2661 40.4996 86.4585 39.9012 86.6081 39.4409C86.7577 38.9754 86.8699 38.5918 86.8646 38.5816C86.8539 38.5764 86.6081 38.6276 86.3142 38.6992C85.5982 38.8731 84.4334 38.9294 83.9846 38.8015C83.5892 38.6941 83.2579 38.4434 83.0762 38.1314C82.8785 37.7785 82.8411 37.5177 82.9533 37.1545C83.1564 36.4845 84.038 35.9269 85.5715 35.4973C86.6829 35.1853 87.6126 34.8886 87.9973 34.7249C88.1843 34.6431 88.3446 34.5817 88.3553 34.5868C88.3607 34.5971 88.3446 34.9704 88.3233 35.4206C88.2965 35.8707 88.2485 36.7555 88.2164 37.3898C88.1469 38.7503 88.0294 40.2643 87.9225 41.2362C87.8798 41.6198 87.8424 42.0085 87.8424 42.0955V42.2489H91.3689H94.8901L94.9168 42.0801C94.9488 41.9062 95.0343 40.0495 95.0824 38.4383C95.1198 37.354 95.2053 35.4564 95.2427 34.9091C95.2588 34.7096 95.3068 34.1009 95.3496 33.5536C95.5633 30.9553 95.59 30.4949 95.59 29.5487C95.59 28.9912 95.5633 28.3671 95.5313 28.1677C95.2 26.1319 93.3993 24.889 90.2254 24.5003C89.4293 24.4031 87.821 24.3417 87.0409 24.3775Z" fill="#2058D4"/>
<path d="M112.79 24.3981C110.353 24.5822 108.638 25.2574 107.276 26.5668C107.014 26.8225 106.811 26.9862 106.827 26.93C106.843 26.8737 106.87 26.5617 106.886 26.2395C106.907 25.9172 106.934 25.462 106.95 25.2267L106.982 24.8073H103.396H99.8112V25.2779C99.8112 26.8379 99.6402 31.4004 99.512 33.3747C99.3677 35.6508 98.9777 40.1417 98.8761 40.7657C98.8654 40.8373 98.828 41.1238 98.796 41.4051C98.7693 41.6864 98.7265 41.9933 98.7105 42.0802L98.6838 42.249H102.376C105.288 42.249 106.063 42.2337 106.063 42.1825C106.063 41.9472 106.18 39.2261 106.223 38.3873C106.293 37.1086 106.458 35.3491 106.602 34.3465C106.859 32.5921 107.254 31.6868 108.115 30.8633C108.756 30.2546 109.376 29.9835 110.236 29.9375C111.08 29.8915 111.63 30.0705 112.159 30.5718C112.672 31.0526 112.966 31.8147 113.03 32.8376C113.057 33.2571 112.988 35.2723 112.902 36.5204C112.87 36.9551 112.811 38.0599 112.768 38.9755C112.694 40.5253 112.63 41.4204 112.549 42.0035L112.517 42.249H116.199H119.88L119.944 40.2389C120.003 38.3464 120.121 35.9015 120.302 32.8376C120.399 31.252 120.409 29.2317 120.324 28.6588C120.035 26.664 118.726 25.3085 116.471 24.6845C115.536 24.4288 114.003 24.306 112.79 24.3981Z" fill="#2058D4"/>
<path d="M0 24.8738C0 24.9096 0.170983 25.3904 0.379368 25.9377C1.21291 28.132 2.19606 30.9093 3.33951 34.2698C4.63791 38.106 5.589 40.9345 5.85616 41.7733L6.00577 42.249H9.29719H12.594L12.8397 41.5943C13.1283 40.8169 13.3206 40.3105 14.1061 38.2594C14.8488 36.3158 15.6075 34.2545 16.0029 33.119C16.1686 32.6382 16.3182 32.2136 16.3342 32.1727C16.3502 32.1318 16.4785 32.6126 16.6174 33.2468C16.9433 34.7046 17.1143 35.4104 17.8998 38.4384C18.2471 39.7888 18.5997 41.2005 18.6799 41.5687L18.8241 42.249H22.2545H25.6902L26.1016 41.2619C27.0367 39.0369 27.8007 37.3132 31.6906 28.6076C32.5989 26.5821 33.3416 24.8942 33.3416 24.8635C33.3416 24.8226 32.4012 24.8073 30.0289 24.8073H26.7161L26.6359 24.9965C26.481 25.3443 25.9146 26.8942 25.2467 28.7969C24.8833 29.825 24.4131 31.1139 24.2048 31.6612C23.7559 32.8274 23.1735 34.4437 23.0079 34.9757L22.8903 35.3491L22.7941 34.8734C22.6071 33.9067 22.0461 31.6254 21.5064 29.6153C21.0416 27.8711 20.3737 25.3392 20.2775 24.9198L20.2508 24.8073L16.7884 24.8175L13.3313 24.8329L13.1283 25.3955C13.0107 25.7024 12.7917 26.3162 12.6367 26.7509C12.4764 27.1857 12.2787 27.7381 12.1879 27.9785C11.9688 28.5769 11.4291 30.05 11.1032 30.9451C10.7185 32.009 9.8048 34.7097 9.7193 35.0268C9.6819 35.1803 9.63381 35.2672 9.61244 35.2314C9.59107 35.1956 9.52161 34.9245 9.45749 34.6279C9.2865 33.8402 8.92317 32.4694 8.52242 31.073C8.33007 30.3978 8.05222 29.4311 7.90795 28.9248C7.36829 27.0118 6.97824 25.6819 6.80191 25.1397L6.70039 24.8329L3.35019 24.8175C0.619813 24.8073 0 24.8175 0 24.8738Z" fill="#2058D4"/>
</svg>
