<svg width="27" height="27" viewBox="0 0 27 27" fill="none" xmlns="http://www.w3.org/2000/svg">
<path fill-rule="evenodd" clip-rule="evenodd" d="M6.90061 6.89999V5.24999C6.90061 2.51618 9.1168 0.299988 11.8506 0.299988H15.1506C17.8844 0.299988 20.1006 2.51618 20.1006 5.24999V6.89999H23.4006C25.2232 6.89999 26.7006 8.37745 26.7006 10.2V16.0917C22.5915 17.6163 18.1452 18.4499 13.5007 18.4499C8.8561 18.4499 4.40972 17.6163 0.300613 16.0917V10.2C0.300613 8.37745 1.77807 6.89999 3.60061 6.89999H6.90061ZM10.2006 5.24999C10.2006 4.33872 10.9393 3.59999 11.8506 3.59999H15.1506C16.0619 3.59999 16.8006 4.33872 16.8006 5.24999V6.89999H10.2006V5.24999ZM11.8506 13.5C11.8506 12.5887 12.5893 11.85 13.5006 11.85H13.5171C14.4284 11.85 15.1671 12.5887 15.1671 13.5C15.1671 14.4113 14.4284 15.15 13.5171 15.15H13.5006C12.5893 15.15 11.8506 14.4113 11.8506 13.5Z" fill="black" fill-opacity="0.54"/>
<path d="M0.300613 19.5922V23.4C0.300613 25.2225 1.77807 26.7 3.60061 26.7H23.4006C25.2232 26.7 26.7006 25.2225 26.7006 23.4V19.5922C22.5545 20.9917 18.1147 21.7499 13.5007 21.7499C8.8866 21.7499 4.44672 20.9917 0.300613 19.5922Z" fill="black" fill-opacity="0.54"/>
</svg>
