<svg width="20" height="20" viewBox="0 0 20 20" fill="none" xmlns="http://www.w3.org/2000/svg">
<path fill-rule="evenodd" clip-rule="evenodd" d="M3.75 2.5C3.91576 2.5 4.07473 2.56585 4.19194 2.68306C4.30915 2.80027 4.375 2.95924 4.375 3.125V15.625C4.375 15.7908 4.30915 15.9497 4.19194 16.0669C4.07473 16.1842 3.91576 16.25 3.75 16.25C3.58424 16.25 3.42527 16.1842 3.30806 16.0669C3.19085 15.9497 3.125 15.7908 3.125 15.625V3.125C3.125 2.95924 3.19085 2.80027 3.30806 2.68306C3.42527 2.56585 3.58424 2.5 3.75 2.5V2.5Z" fill="white"/>
<path fill-rule="evenodd" clip-rule="evenodd" d="M6.69231 12.6825C6.75052 12.7406 6.7967 12.8095 6.8282 12.8855C6.85971 12.9614 6.87593 13.0428 6.87593 13.125C6.87593 13.2072 6.85971 13.2886 6.8282 13.3645C6.7967 13.4405 6.75052 13.5094 6.69231 13.5675L4.19231 16.0675C4.13426 16.1257 4.06529 16.1719 3.98935 16.2034C3.91342 16.2349 3.83202 16.2511 3.74981 16.2511C3.6676 16.2511 3.5862 16.2349 3.51027 16.2034C3.43434 16.1719 3.36537 16.1257 3.30731 16.0675L0.807313 13.5675C0.689955 13.4501 0.624023 13.291 0.624023 13.125C0.624023 12.959 0.689955 12.7999 0.807313 12.6825C0.924671 12.5651 1.08384 12.4992 1.24981 12.4992C1.41578 12.4992 1.57495 12.5651 1.69231 12.6825L3.74981 14.7413L5.80731 12.6825C5.86537 12.6243 5.93434 12.5781 6.01027 12.5466C6.0862 12.5151 6.1676 12.4989 6.24981 12.4989C6.33202 12.4989 6.41342 12.5151 6.48935 12.5466C6.56529 12.5781 6.63426 12.6243 6.69231 12.6825ZM8.74981 11.875C8.74981 11.7092 8.81566 11.5503 8.93287 11.4331C9.05008 11.3158 9.20905 11.25 9.37481 11.25H13.1248C13.2906 11.25 13.4495 11.3158 13.5668 11.4331C13.684 11.5503 13.7498 11.7092 13.7498 11.875C13.7498 12.0408 13.684 12.1997 13.5668 12.3169C13.4495 12.4342 13.2906 12.5 13.1248 12.5H9.37481C9.20905 12.5 9.05008 12.4342 8.93287 12.3169C8.81566 12.1997 8.74981 12.0408 8.74981 11.875ZM8.74981 8.125C8.74981 7.95924 8.81566 7.80027 8.93287 7.68306C9.05008 7.56585 9.20905 7.5 9.37481 7.5H15.6248C15.7906 7.5 15.9495 7.56585 16.0668 7.68306C16.184 7.80027 16.2498 7.95924 16.2498 8.125C16.2498 8.29076 16.184 8.44973 16.0668 8.56694C15.9495 8.68415 15.7906 8.75 15.6248 8.75H9.37481C9.20905 8.75 9.05008 8.68415 8.93287 8.56694C8.81566 8.44973 8.74981 8.29076 8.74981 8.125ZM8.74981 4.375C8.74981 4.20924 8.81566 4.05027 8.93287 3.93306C9.05008 3.81585 9.20905 3.75 9.37481 3.75H18.1248C18.2906 3.75 18.4495 3.81585 18.5668 3.93306C18.684 4.05027 18.7498 4.20924 18.7498 4.375C18.7498 4.54076 18.684 4.69973 18.5668 4.81694C18.4495 4.93415 18.2906 5 18.1248 5H9.37481C9.20905 5 9.05008 4.93415 8.93287 4.81694C8.81566 4.69973 8.74981 4.54076 8.74981 4.375ZM8.74981 15.625C8.74981 15.4592 8.81566 15.3003 8.93287 15.1831C9.05008 15.0658 9.20905 15 9.37481 15H10.6248C10.7906 15 10.9495 15.0658 11.0668 15.1831C11.184 15.3003 11.2498 15.4592 11.2498 15.625C11.2498 15.7908 11.184 15.9497 11.0668 16.0669C10.9495 16.1842 10.7906 16.25 10.6248 16.25H9.37481C9.20905 16.25 9.05008 16.1842 8.93287 16.0669C8.81566 15.9497 8.74981 15.7908 8.74981 15.625Z" fill="white"/>
</svg>
