<svg width="47" height="39" viewBox="0 0 47 39" fill="none" xmlns="http://www.w3.org/2000/svg">
<path d="M39.2276 21.4053C39.1148 21.3497 39.0017 21.3219 38.8878 21.3219C38.6425 21.3219 38.4264 21.4139 38.2381 21.5983L36.4292 23.3659C36.2601 23.5318 36.1752 23.7341 36.1752 23.9737V30.9888C36.1752 32.2044 35.7334 33.2443 34.8473 34.1101C33.9618 34.9755 32.8971 35.4082 31.6535 35.4082H8.13951C6.89581 35.4082 5.83119 34.9755 4.94574 34.1101C4.06008 33.2444 3.6175 32.2045 3.6175 30.9888V8.00893C3.6175 6.79366 4.06008 5.75329 4.94574 4.88764C5.83119 4.02219 6.89581 3.58955 8.13951 3.58955H31.6537C32.0682 3.58955 32.4921 3.64479 32.9254 3.75537C33.0385 3.79194 33.1233 3.81061 33.1791 3.81061C33.4244 3.81061 33.6412 3.7188 33.8295 3.5347L35.2143 2.18128C35.4402 1.96061 35.5253 1.6934 35.4683 1.38064C35.4118 1.08596 35.242 0.874095 34.9594 0.745331C33.9426 0.285611 32.8399 0.0546875 31.6529 0.0546875H8.13951C5.89741 0.0546875 3.9802 0.832689 2.38806 2.38869C0.796128 3.94489 6.10352e-05 5.8183 6.10352e-05 8.00961V30.9901C6.10352e-05 33.181 0.796128 35.0546 2.38816 36.6106C3.9803 38.167 5.89751 38.945 8.13961 38.945H31.6535C33.8953 38.945 35.8127 38.167 37.4048 36.6106C38.9971 35.0546 39.7938 33.1811 39.7938 30.9901V22.2062C39.7936 21.8198 39.6043 21.5529 39.2276 21.4053Z" fill="#0072FF"/>
<path d="M46.3219 5.55097L43.2127 2.51239C42.7605 2.07057 42.2232 1.84961 41.6013 1.84961C40.9801 1.84961 40.4424 2.07057 39.9906 2.51239L21.7048 20.3831L14.2724 13.1188C13.8201 12.6767 13.283 12.456 12.6614 12.456C12.0398 12.456 11.5029 12.6767 11.0505 13.1188L7.94174 16.157C7.48956 16.5989 7.26328 17.1239 7.26328 17.7317C7.26328 18.3392 7.48956 18.864 7.94174 19.3061L20.0943 31.1828C20.5466 31.625 21.0837 31.8456 21.7052 31.8456C22.3268 31.8456 22.8638 31.6251 23.3162 31.1828L46.3216 8.69964C46.7734 8.25782 47 7.7328 47 7.12526C47 6.51771 46.774 5.99279 46.3219 5.55097Z" fill="#0072FF"/>
</svg>
